<?xml version="1.0" encoding="UTF-8"?>
<svg width="12px" height="16px" viewBox="0 0 12 16" version="1.1" xmlns="http://www.w3.org/2000/svg" xmlns:xlink="http://www.w3.org/1999/xlink">
    <!-- Generator: Sketch 47.1 (45422) - http://www.bohemiancoding.com/sketch -->
    <title>back</title>
    <desc>Created with Sketch.</desc>
    <defs>
        <path d="M1.62296687,8.18445765 C1.6741525,8.29526041 1.74634154,8.39906036 1.839534,8.49011046 L8.19247517,14.697007 C8.60597148,15.1009977 9.27638146,15.1009977 9.68987777,14.697007 C10.1033741,14.2930164 10.1033741,13.6380181 9.68987777,13.2340275 L3.55622612,7.24137931 L9.160466,1.76597253 C9.57396231,1.36198189 9.57396231,0.706983632 9.160466,0.302992985 C8.74696969,-0.100997662 8.07655972,-0.100997662 7.66306341,0.302992985 L1.31012223,6.50988954 C0.896625923,6.91388018 0.896625923,7.56887844 1.31012223,7.97286908 C1.40331469,8.06391918 1.50955699,8.13444871 1.62296687,8.18445765 Z" id="path-1"></path>
    </defs>
    <g id="Symbols" stroke="none" stroke-width="1" fill="none" fill-rule="evenodd">
        <g id="back">
            <mask id="mask-2" fill="white">
                <use xlink:href="#path-1"></use>
            </mask>
            <use id="Line-3-Copy" fill="#979797" fill-rule="nonzero" xlink:href="#path-1"></use>
            <g id="color/green/foncé" mask="url(#mask-2)" fill="#20AC8D">
                <g transform="translate(-20.000000, -15.000000)" id="Rectangle-7-Copy-2">
                    <rect x="0" y="0" width="50" height="50"></rect>
                </g>
            </g>
        </g>
    </g>
</svg>